<?xml version="1.0" encoding="UTF-8" standalone="no"?>
<svg
   xmlns:dc="http://purl.org/dc/elements/1.1/"
   xmlns:cc="http://creativecommons.org/ns#"
   xmlns:rdf="http://www.w3.org/1999/02/22-rdf-syntax-ns#"
   xmlns:svg="http://www.w3.org/2000/svg"
   xmlns="http://www.w3.org/2000/svg"
   viewBox="0 0 98.666664 144.192"
   height="144.192"
   width="98.666664"
   xml:space="preserve"
   id="svg2"
   version="1.1"><metadata
     id="metadata8"><rdf:RDF><cc:Work
         rdf:about=""><dc:format>image/svg+xml</dc:format><dc:type
           rdf:resource="http://purl.org/dc/dcmitype/StillImage" /></cc:Work></rdf:RDF></metadata><defs
     id="defs6"><clipPath
       id="clipPath20"
       clipPathUnits="userSpaceOnUse"><path
         id="path18"
         d="M 0,108.144 H 74 V 0 H 0 Z" /></clipPath><linearGradient
       id="linearGradient62"
       spreadMethod="pad"
       gradientTransform="matrix(52.461227,0,0,-52.461227,10.769385,68.494759)"
       gradientUnits="userSpaceOnUse"
       y2="0"
       x2="1"
       y1="0"
       x1="0"><stop
         id="stop38"
         offset="0"
         style="stop-opacity:1;stop-color:#9d5424" /><stop
         id="stop40"
         offset="0.1"
         style="stop-opacity:1;stop-color:#9d5424" /><stop
         id="stop42"
         offset="0.29982615"
         style="stop-opacity:1;stop-color:#e6aa37" /><stop
         id="stop44"
         offset="0.3"
         style="stop-opacity:1;stop-color:#e6aa37" /><stop
         id="stop46"
         offset="0.47975733"
         style="stop-opacity:1;stop-color:#f3f099" /><stop
         id="stop48"
         offset="0.48"
         style="stop-opacity:1;stop-color:#f3f099" /><stop
         id="stop50"
         offset="0.5756289"
         style="stop-opacity:1;stop-color:#f3f099" /><stop
         id="stop52"
         offset="0.575758"
         style="stop-opacity:1;stop-color:#f3f099" /><stop
         id="stop54"
         offset="0.73917339"
         style="stop-opacity:1;stop-color:#e6aa37" /><stop
         id="stop56"
         offset="0.739394"
         style="stop-opacity:1;stop-color:#e6aa37" /><stop
         id="stop58"
         offset="0.99983852"
         style="stop-opacity:1;stop-color:#62270f" /><stop
         id="stop60"
         offset="1"
         style="stop-opacity:1;stop-color:#62270f" /></linearGradient><linearGradient
       id="linearGradient102"
       spreadMethod="pad"
       gradientTransform="matrix(37.069801,0,0,-37.069801,22.471096,21.206434)"
       gradientUnits="userSpaceOnUse"
       y2="0"
       x2="1"
       y1="0"
       x1="0"><stop
         id="stop78"
         offset="0"
         style="stop-opacity:1;stop-color:#9d5424" /><stop
         id="stop80"
         offset="0.1"
         style="stop-opacity:1;stop-color:#9d5424" /><stop
         id="stop82"
         offset="0.29982615"
         style="stop-opacity:1;stop-color:#e6aa37" /><stop
         id="stop84"
         offset="0.3"
         style="stop-opacity:1;stop-color:#e6aa37" /><stop
         id="stop86"
         offset="0.47975733"
         style="stop-opacity:1;stop-color:#f3f099" /><stop
         id="stop88"
         offset="0.48"
         style="stop-opacity:1;stop-color:#f3f099" /><stop
         id="stop90"
         offset="0.5756289"
         style="stop-opacity:1;stop-color:#f3f099" /><stop
         id="stop92"
         offset="0.575758"
         style="stop-opacity:1;stop-color:#f3f099" /><stop
         id="stop94"
         offset="0.73917339"
         style="stop-opacity:1;stop-color:#e6aa37" /><stop
         id="stop96"
         offset="0.739394"
         style="stop-opacity:1;stop-color:#e6aa37" /><stop
         id="stop98"
         offset="0.99983852"
         style="stop-opacity:1;stop-color:#62270f" /><stop
         id="stop100"
         offset="1"
         style="stop-opacity:1;stop-color:#62270f" /></linearGradient></defs><g
     transform="matrix(1.3333333,0,0,-1.3333333,0,144.192)"
     id="g10"><path
       id="path12"
       style="fill:#3a1f10;fill-opacity:1;fill-rule:nonzero;stroke:none"
       d="M 0,0 H 74 V 108.144 H 0 Z" /><g
       id="g14"><g
         clip-path="url(#clipPath20)"
         id="g16"><text
           id="text24"
           style="font-variant:normal;font-weight:normal;font-stretch:normal;font-size:11.58150005px;font-family:'Adobe Arabic';-inkscape-font-specification:AdobeArabic-Regular;writing-mode:lr-tb;fill:#af5c09;fill-opacity:1;fill-rule:nonzero;stroke:none"
           transform="matrix(0.99051073,0,0,-1,22.4712,5.6416)"><tspan
             id="tspan22"
             y="0"
             x="0 4.8005319 9.6531801 14.992251 19.5322 25.73525 33.355877">PERFUMS</tspan></text>
</g></g><g
       id="g26"><g
         id="g28"><g
           id="g34"><g
             id="g36"><path
               id="path64"
               style="fill:url(#linearGradient62);stroke:none"
               d="M 36.788,106.285 29.256,98.851 V 87.245 l 4.659,1.654 V 48.342 l -4.659,1.402 V 38.138 l 7.626,-7.434 c 0,0 0.718,-0.335 1.007,0 v 0 l 7.53,7.434 v 11.606 l -4.615,-1.639 v 40.529 l 4.615,-1.389 v 11.606 l -7.625,7.434 c 0,0 -0.32,0.149 -0.618,0.149 v 0 c -0.149,0 -0.292,-0.037 -0.388,-0.149 m 11.508,-64.889 0.336,0.24 6.187,6.186 v 13.813 l 2.686,-1.823 c 0,0 0.239,-0.432 0.12,-1.295 v 0 c -0.12,-0.863 -0.12,-7.722 -0.12,-7.722 v 0 l 5.611,10.336 c 0,0 0.552,1.247 -0.767,2.518 v 0 c -1.319,1.27 -4.82,4.892 -4.82,4.892 v 0 l 5.155,5.251 c 0,0 0.84,1.055 0.432,2.158 v 0 c -0.408,1.104 -5.515,10.36 -5.515,10.36 v 0 l -0.048,-7.986 c 0,0 -0.096,-0.67 -0.576,-1.295 v 0 c -0.48,-0.622 -2.35,-2.158 -2.35,-2.158 v 0 L 54.58,89.308 48.296,95.59 Z M 10.792,68.541 C 11.512,53.434 25.036,42.499 26.475,41.636 v 0 53.954 c 0,0 -16.402,-11.941 -15.683,-27.049" /></g></g></g></g><g
       id="g66"><g
         id="g68"><g
           id="g74"><g
             id="g76"><path
               id="path104"
               style="fill:url(#linearGradient102);stroke:none"
               d="m 47.372,29.377 c 0.195,-0.087 0.325,-0.174 0.39,-0.282 v 0 c 0.065,-0.065 0.13,-0.173 0.194,-0.324 v 0 C 48,28.619 48,28.445 47.978,28.273 v 0 c -0.022,-0.196 -0.086,-0.39 -0.151,-0.564 v 0 C 47.74,27.558 47.588,27.341 47.351,27.104 v 0 l -2.577,-2.556 -1.256,-1.256 v 2.88 c 0,1.126 -0.087,1.732 0.26,2.404 v 0 c 0.152,0.238 0.346,0.303 0.541,0.41 v 0 c 0.217,0.066 0.477,0.109 0.802,0.131 v 0 0.217 h -5.457 v -0.217 c 0.325,-0.022 0.607,-0.065 0.801,-0.131 v 0 c 0.195,-0.107 0.368,-0.215 0.52,-0.41 v 0 c 0.259,-0.282 0.303,-0.78 0.303,-1.364 v 0 -0.889 -5.283 c 0,-0.821 0.044,-1.776 -0.303,-2.186 v 0 c -0.152,-0.152 -0.325,-0.303 -0.52,-0.368 v 0 c -0.194,-0.109 -0.476,-0.152 -0.801,-0.173 v 0 -0.217 h 1.191 4.266 v 0.217 c -0.325,0.021 -0.585,0.064 -0.802,0.173 v 0 c -0.216,0.065 -0.389,0.173 -0.541,0.368 v 0 c -0.368,0.455 -0.26,1.299 -0.26,2.403 v 0 1.537 l 0.91,0.932 0.237,-0.39 c 0.152,-0.238 0.325,-0.563 0.564,-0.931 v 0 c 2.143,-3.226 4.482,-6.691 7.75,-8.423 v 0 c 2.187,-1.212 4.461,-1.363 6.561,-0.736 v 0 0.065 c -5.997,0.411 -8.422,4.223 -12.298,10.003 v 0 L 46.376,24.7 c -0.152,0.195 -0.238,0.39 -0.346,0.585 v 0 l 1.061,1.06 c 0.497,0.412 0.844,0.736 1.082,0.931 v 0 c 0.238,0.173 0.455,0.325 0.628,0.412 v 0 c 0.26,0.151 0.498,0.173 0.737,0.173 v 0 c 0.216,0 0.454,-0.065 0.713,-0.173 v 0 l 0.065,0.173 -2.857,1.668 z m -24.901,-5.63 c 0,-3.291 2.36,-5.803 5.478,-5.803 v 0 c 3.118,0 5.478,2.512 5.478,5.803 v 0 c 0,3.313 -2.36,5.782 -5.478,5.782 v 0 c -3.118,0 -5.478,-2.469 -5.478,-5.782 m 11.39,5.587 v -0.217 c 0.325,-0.022 0.606,-0.065 0.801,-0.131 v 0 c 0.195,-0.107 0.368,-0.259 0.519,-0.41 v 0 c 0.195,-0.174 0.238,-0.477 0.303,-0.823 v 0 c 0.066,-0.455 0.023,-0.974 0.023,-1.472 v 0 -5.175 c -0.065,-0.975 0.129,-1.494 -0.326,-2.252 v 0 c -0.107,-0.195 -0.324,-0.303 -0.519,-0.368 v 0 c -0.195,-0.109 -0.476,-0.152 -0.801,-0.173 v 0 -0.217 h 5.456 v 0.217 c -0.324,0.021 -0.585,0.064 -0.801,0.173 v 0 c -0.238,0.065 -0.411,0.195 -0.541,0.368 v 0 c -0.324,0.519 -0.238,1.365 -0.238,2.49 v 0 4.742 c 0.065,1.58 -0.195,2.49 0.779,2.9 v 0 c 0.216,0.066 0.477,0.109 0.801,0.131 v 0 0.217 z" /></g></g></g></g></g></svg>